<svg xmlns="http://www.w3.org/2000/svg" viewBox="0 0 211.26 211.28"><defs><style>.cls-1,.cls-2{fill:#2d2923;}.cls-2{font-size:82.19px;font-family:OswaldHeavy-Regular, Oswald Heavy;}.cls-3{letter-spacing:-0.01em;}</style></defs><g id="Capa_2" data-name="Capa 2"><g id="Capa_1-2" data-name="Capa 1"><path class="cls-1" d="M175.36,116.44A46.6,46.6,0,1,0,150.1,26.81l-1.93.64-.92-1.81a46.6,46.6,0,0,0-83.24,0l-.91,1.81-1.94-.64A46.6,46.6,0,1,0,35.9,116.44l1.6.38,11.64,94.46h113l11.64-94.46Zm-19.88,87.32H55.78l-2.06-16.82H157.54Zm11.46-93-8.47,68.7H52.79l-8.47-68.7-6.7-1.58A39.28,39.28,0,0,1,16.09,95.52,39.07,39.07,0,0,1,46.59,32,39.07,39.07,0,0,1,58.82,34l8.07,2.65L70.72,29A39.36,39.36,0,0,1,84.88,13.48a39.81,39.81,0,0,1,41.51,0A39.44,39.44,0,0,1,140.55,29l3.82,7.59L152.45,34a39.09,39.09,0,1,1,21.2,75.18Z"/><text class="cls-2" transform="translate(62.09 141.29)"><tspan class="cls-3">T</tspan><tspan x="36.49" y="0">C</tspan></text></g></g></svg>